{
  "accessors": [
    {
      "bufferView": 8,
      "componentType": 5126,
      "count": 161,
      "max": [
        1.0,
        0.9877790212631226,
        0.9981223940849304,
        0.0,
        1.0,
        1.0,
        0.9995021224021912,
        0.0,
        0.9884781837463379,
        0.9937708973884583,
        1.0,
        0.0,
        13.992715835571289,
        15.82022476196289,
        15.892012596130371,
        1.0
      ],
      "min": [
        -0.9947131276130676,
        -1.0,
        -0.9981223940849304,
        0.0,
        -0.9995020031929016,
        -0.9970880746841431,
        -0.9995020031929016,
        0.0,
        -0.9884782433509827,
        -0.9937708973884583,
        -0.9995531439781189,
        0.0,
        -15.915454864501953,
        -16.727590560913086,
        -17.399328231811523,
        1.0
      ],
      "type": "MAT4"
    },
    {
      "bufferView": 9,
      "componentType": 5126,
      "count": 28604,
      "max": [
        9.554370880126953,
        1.8797705173492432,
        14.88099479675293
      ],
      "min": [
        8.44563102722168,
        1.129460334777832,
        14.456075668334961
      ],
      "type": "VEC3"
    },
    {
      "bufferView": 10,
      "componentType": 5126,
      "count": 28604,
      "max": [
        0.9999690055847168,
        0.9998760223388672,
        0.9999690055847168
      ],
      "min": [
        -0.9999690055847168,
        -1.0,
        -1.0
      ],
      "type": "VEC3"
    },
    {
      "bufferView": 11,
      "componentType": 5126,
      "count": 28604,
      "max": [
        0.994140625,
        0.9921875
      ],
      "min": [
        0.01010894775390625,
        0.006450653076171875
      ],
      "type": "VEC2"
    },
    {
      "bufferView": 12,
      "componentType": 5126,
      "count": 28604,
      "max": [
        1.0,
        0.49803921580314636,
        0.3176470696926117,
        0.24302780628204346
      ],
      "min": [
        0.2705882489681244,
        0.0,
        0.0,
        0.0
      ],
      "type": "VEC4"
    },
    {
      "bufferView": 13,
      "componentType": 5123,
      "count": 28604,
      "max": [
        91,
        151,
        151,
        151
      ],
      "min": [
        1,
        1,
        1,
        1
      ],
      "type": "VEC4"
    },
    {
      "bufferView": 14,
      "componentType": 5125,
      "count": 162036,
      "max": [
        28603
      ],
      "min": [
        0
      ],
      "type": "SCALAR"
    },
    {
      "bufferView": 15,
      "componentType": 5126,
      "count": 20101,
      "max": [
        9.327856063842773,
        2.105236053466797,
        14.814292907714844
      ],
      "min": [
        8.67214584350586,
        0.2997972369194031,
        14.483033180236816
      ],
      "type": "VEC3"
    },
    {
      "bufferView": 16,
      "componentType": 5126,
      "count": 20101,
      "max": [
        0.9999380111694336,
        0.9993805885314941,
        1.0
      ],
      "min": [
        -0.9999380111694336,
        -1.0,
        -0.9999380111694336
      ],
      "type": "VEC3"
    },
    {
      "bufferView": 17,
      "componentType": 5126,
      "count": 20101,
      "max": [
        0.99462890625,
        0.990234375
      ],
      "min": [
        0.0059356689453125,
        0.006000518798828125
      ],
      "type": "VEC2"
    },
    {
      "bufferView": 18,
      "componentType": 5126,
      "count": 20101,
      "max": [
        1.0,
        0.49803921580314636,
        0.31372547149658203,
        0.23350250720977783
      ],
      "min": [
        0.2687224745750427,
        0.0,
        0.0,
        0.0
      ],
      "type": "VEC4"
    },
    {
      "bufferView": 19,
      "componentType": 5123,
      "count": 20101,
      "max": [
        151,
        151,
        151,
        151
      ],
      "min": [
        1,
        1,
        1,
        1
      ],
      "type": "VEC4"
    },
    {
      "bufferView": 20,
      "componentType": 5125,
      "count": 114498,
      "max": [
        20100
      ],
      "min": [
        0
      ],
      "type": "SCALAR"
    }
  ],
  "asset": {
    "version": "2.0"
  },
  "bufferViews": [
    {
      "buffer": 0,
      "byteLength": 1101574
    },
    {
      "buffer": 0,
      "byteLength": 524697,
      "byteOffset": 1101574
    },
    {
      "buffer": 0,
      "byteLength": 556034,
      "byteOffset": 1626271
    },
    {
      "buffer": 0,
      "byteLength": 26440,
      "byteOffset": 2182305
    },
    {
      "buffer": 0,
      "byteLength": 848796,
      "byteOffset": 2208745
    },
    {
      "buffer": 0,
      "byteLength": 373194,
      "byteOffset": 3057541
    },
    {
      "buffer": 0,
      "byteLength": 393518,
      "byteOffset": 3430735
    },
    {
      "buffer": 0,
      "byteLength": 683222,
      "byteOffset": 3824253
    },
    {
      "buffer": 0,
      "byteLength": 10304,
      "byteOffset": 4507476
    },
    {
      "buffer": 0,
      "byteLength": 343248,
      "byteOffset": 4517780,
      "target": 34962
    },
    {
      "buffer": 0,
      "byteLength": 343248,
      "byteOffset": 4861028,
      "target": 34962
    },
    {
      "buffer": 0,
      "byteLength": 228832,
      "byteOffset": 5204276,
      "target": 34962
    },
    {
      "buffer": 0,
      "byteLength": 457664,
      "byteOffset": 5433108,
      "target": 34962
    },
    {
      "buffer": 0,
      "byteLength": 228832,
      "byteOffset": 5890772,
      "target": 34962
    },
    {
      "buffer": 0,
      "byteLength": 648144,
      "byteOffset": 6119604,
      "target": 34963
    },
    {
      "buffer": 0,
      "byteLength": 241212,
      "byteOffset": 6767748,
      "target": 34962
    },
    {
      "buffer": 0,
      "byteLength": 241212,
      "byteOffset": 7008960,
      "target": 34962
    },
    {
      "buffer": 0,
      "byteLength": 160808,
      "byteOffset": 7250172,
      "target": 34962
    },
    {
      "buffer": 0,
      "byteLength": 321616,
      "byteOffset": 7410980,
      "target": 34962
    },
    {
      "buffer": 0,
      "byteLength": 160808,
      "byteOffset": 7732596,
      "target": 34962
    },
    {
      "buffer": 0,
      "byteLength": 457992,
      "byteOffset": 7893404,
      "target": 34963
    }
  ],
  "buffers": [
    {
      "byteLength": 8351396,
      "uri": "Manny.bin"
    }
  ],
  "images": [
    {
      "bufferView": 0,
      "mimeType": "image/png",
      "name": "MI_Manny_02_SKM_Manny_BaseColor.png"
    },
    {
      "bufferView": 1,
      "mimeType": "image/png",
      "name": "MI_Manny_02_SKM_Manny_MetallicRoughness.png"
    },
    {
      "bufferView": 2,
      "mimeType": "image/png",
      "name": "MI_Manny_02_SKM_Manny_Occlusion.png"
    },
    {
      "bufferView": 3,
      "mimeType": "image/png",
      "name": "MI_Manny_02_SKM_Manny_Emissive.png"
    },
    {
      "bufferView": 4,
      "mimeType": "image/png",
      "name": "MI_Manny_01_SKM_Manny_BaseColor.png"
    },
    {
      "bufferView": 5,
      "mimeType": "image/png",
      "name": "MI_Manny_01_SKM_Manny_MetallicRoughness.png"
    },
    {
      "bufferView": 6,
      "mimeType": "image/png",
      "name": "MI_Manny_01_SKM_Manny_Occlusion.png"
    },
    {
      "bufferView": 7,
      "mimeType": "image/png",
      "name": "MI_Manny_01_SKM_Manny_Emissive.png"
    }
  ],
  "materials": [
    {
      "emissiveFactor": [
        1.0,
        1.0,
        1.0
      ],
      "emissiveTexture": {
        "index": 3
      },
      "name": "MI_Manny_02_SKM_Manny",
      "occlusionTexture": {
        "index": 2
      },
      "pbrMetallicRoughness": {
        "baseColorTexture": {
          "index": 0
        },
        "metallicRoughnessTexture": {
          "index": 1
        }
      }
    },
    {
      "emissiveFactor": [
        0.034912109375,
        0.034912109375,
        0.034912109375
      ],
      "emissiveTexture": {
        "index": 7
      },
      "name": "MI_Manny_01_SKM_Manny",
      "occlusionTexture": {
        "index": 6
      },
      "pbrMetallicRoughness": {
        "baseColorTexture": {
          "index": 4
        },
        "metallicRoughnessTexture": {
          "index": 5
        }
      }
    }
  ],
  "meshes": [
    {
      "primitives": [
        {
          "attributes": {
            "JOINTS_0": 5,
            "NORMAL": 2,
            "POSITION": 1,
            "TEXCOORD_0": 3,
            "WEIGHTS_0": 4
          },
          "indices": 6,
          "material": 0,
          "mode": 4
        },
        {
          "attributes": {
            "JOINTS_0": 11,
            "NORMAL": 8,
            "POSITION": 7,
            "TEXCOORD_0": 9,
            "WEIGHTS_0": 10
          },
          "indices": 12,
          "material": 1,
          "mode": 4
        }
      ]
    }
  ],
  "nodes": [
    {
      "mesh": 0,
      "name": "Mesh",
      "rotation": [
        0.0,
        0.0,
        -0.0,
        -1.0
      ],
      "scale": [
        1.0,
        1.0,
        1.0
      ],
      "skin": 0,
      "translation": [
        -0.0,
        0.0,
        0.0
      ]
    },
    {
      "children": [
        2
      ],
      "name": "Armature",
      "rotation": [
        0.0,
        0.0,
        -0.0,
        -1.0
      ],
      "scale": [
        1.0,
        1.0,
        1.0
      ],
      "translation": [
        -0.0,
        0.0,
        0.0
      ]
    },
    {
      "children": [
        3,
        154,
        157,
        161,
        162
      ],
      "name": "root",
      "rotation": [
        0.0,
        0.0,
        -0.0,
        -1.0
      ],
      "scale": [
        1.0,
        1.0,
        1.0
      ],
      "translation": [
        9.0,
        0.29999998211860657,
        14.59999942779541
      ]
    },
    {
      "children": [
        4,
        108,
        131
      ],
      "name": "pelvis",
      "rotation": [
        -0.022414950653910637,
        0.022414950653910637,
        0.7067514061927795,
        0.7067514061927795
      ],
      "scale": [
        1.0,
        1.0,
        1.0
      ],
      "translation": [
        -0.0,
        0.9589678049087524,
        0.02280902862548828
      ]
    },
    {
      "children": [
        5
      ],
      "name": "spine_01",
      "rotation": [
        5.6583572561294615e-31,
        0.12582948803901672,
        4.2648848164888554e-32,
        -0.9920518398284912
      ],
      "scale": [
        1.0,
        1.0,
        1.0
      ],
      "translation": [
        0.03677058219909668,
        -9.5367431640625e-07,
        0.0
      ]
    },
    {
      "children": [
        6
      ],
      "name": "spine_02",
      "rotation": [
        3.726888382361151e-31,
        -0.030228588730096817,
        -7.023139699023136e-32,
        -0.9995430111885071
      ],
      "scale": [
        1.0,
        1.0,
        1.0
      ],
      "translation": [
        0.06795072555541992,
        0.0,
        9.5367431640625e-07
      ]
    },
    {
      "children": [
        7
      ],
      "name": "spine_03",
      "rotation": [
        8.870466099412411e-32,
        -0.0953773558139801,
        9.30054950727234e-33,
        -0.995441198348999
      ],
      "scale": [
        1.0,
        1.0,
        1.0
      ],
      "translation": [
        0.07238221168518066,
        0.0,
        -9.5367431640625e-07
      ]
    },
    {
      "children": [
        8
      ],
      "name": "spine_04",
      "rotation": [
        -3.917738922609715e-06,
        -0.05117673799395561,
        2.007601125342262e-07,
        -0.998689591884613
      ],
      "scale": [
        1.0,
        1.0,
        1.0
      ],
      "translation": [
        0.08523887395858765,
        0.0,
        -9.5367431640625e-07
      ]
    },
    {
      "children": [
        9,
        12,
        58,
        104,
        105,
        106,
        107
      ],
      "name": "spine_05",
      "rotation": [
        3.922817995771766e-06,
        -0.005946220364421606,
        2.3326178322236046e-08,
        -0.9999823570251465
      ],
      "scale": [
        1.0,
        1.0,
        1.0
      ],
      "translation": [
        0.1943981647491455,
        0.0,
        0.0
      ]
    },
    {
      "children": [
        10
      ],
      "name": "neck_01",
      "rotation": [
        -1.5238804628122337e-19,
        0.20730049908161163,
        -0.0,
        -0.9782772660255432
      ],
      "scale": [
        1.0,
        1.0,
        1.0
      ],
      "translation": [
        0.11887764930725098,
        0.0,
        0.0
      ]
    },
    {
      "children": [
        11
      ],
      "name": "neck_02",
      "rotation": [
        8.547848437956418e-07,
        -0.016697917133569717,
        -1.4275117088402567e-08,
        -0.9998605847358704
      ],
      "scale": [
        1.0,
        1.0,
        1.0
      ],
      "translation": [
        0.051102399826049805,
        0.0,
        9.5367431640625e-07
      ]
    },
    {
      "name": "head",
      "rotation": [
        -8.503216122335289e-07,
        -0.10348842293024063,
        -8.847033683423433e-08,
        -0.9946306347846985
      ],
      "scale": [
        1.0,
        1.0,
        1.0
      ],
      "translation": [
        0.049129486083984375,
        9.5367431640625e-07,
        0.0
      ]
    },
    {
      "children": [
        13,
        56,
        57
      ],
      "name": "clavicle_l",
      "rotation": [
        -0.08327832818031311,
        0.04129001125693321,
        0.7545603513717651,
        -0.6496140956878662
      ],
      "scale": [
        1.0,
        1.0,
        1.0
      ],
      "translation": [
        0.055162668228149414,
        -0.014279365539550781,
        -0.013148307800292969
      ]
    },
    {
      "children": [
        14,
        45,
        47,
        51
      ],
      "name": "upperarm_l",
      "rotation": [
        0.019947856664657593,
        0.020190158858895302,
        0.39173078536987305,
        -0.9196420907974243
      ],
      "scale": [
        1.0,
        1.0,
        1.0
      ],
      "translation": [
        0.17809581756591797,
        -2.384185791015625e-07,
        0.0
      ]
    },
    {
      "children": [
        15,
        16,
        17,
        22
      ],
      "name": "lowerarm_l",
      "rotation": [
        4.939639253187522e-10,
        0.3336326479911804,
        7.903421028743196e-09,
        -0.9427031874656677
      ],
      "scale": [
        1.0,
        1.0,
        1.0
      ],
      "translation": [
        0.2777118682861328,
        -1.430511474609375e-06,
        -9.5367431640625e-07
      ]
    },
    {
      "name": "lowerarm_twist_02_l",
      "rotation": [
        -0.011477654799818993,
        -0.017494790256023407,
        -0.01487736590206623,
        -0.9996703267097473
      ],
      "scale": [
        1.0,
        1.0,
        1.0
      ],
      "translation": [
        0.09083747863769531,
        0.0,
        0.0
      ]
    },
    {
      "name": "lowerarm_twist_01_l",
      "rotation": [
        -0.011477647349238396,
        -0.017494797706604004,
        -0.01487732119858265,
        -0.9996703267097473
      ],
      "scale": [
        1.0,
        1.0,
        1.0
      ],
      "translation": [
        0.18167400360107422,
        -4.76837158203125e-07,
        -9.5367431640625e-07
      ]
    },
    {
      "children": [
        18,
        19,
        20,
        21
      ],
      "name": "lowerarm_correctiveRoot_l",
      "rotation": [
        -0.011752082034945488,
        -0.00017880227824207395,
        -0.015209686011075974,
        -0.9998152256011963
      ],
      "scale": [
        1.0,
        1.0,
        1.0
      ],
      "translation": [
        -0.0,
        -4.76837158203125e-07,
        0.0
      ]
    },
    {
      "name": "lowerarm_in_l",
      "rotation": [
        -1.0,
        7.450580596923828e-09,
        -7.450580596923828e-09,
        0.0
      ],
      "scale": [
        1.0,
        1.0,
        1.0
      ],
      "translation": [
        0.007171630859375,
        -0.03988838195800781,
        -0.007189273834228516
      ]
    },
    {
      "name": "lowerarm_out_l",
      "rotation": [
        0.0,
        7.450580596923828e-09,
        7.450580596923828e-09,
        -1.0
      ],
      "scale": [
        1.0,
        1.0,
        1.0
      ],
      "translation": [
        0.005839347839355469,
        0.02721405029296875,
        -0.0057525634765625
      ]
    },
    {
      "name": "lowerarm_fwd_l",
      "rotation": [
        -0.7071067690849304,
        0.0,
        0.0,
        -0.7071067690849304
      ],
      "scale": [
        1.0,
        1.0,
        1.0
      ],
      "translation": [
        0.01693439483642578,
        -0.004387855529785156,
        0.0365900993347168
      ]
    },
    {
      "name": "lowerarm_bck_l",
      "rotation": [
        -0.7071067690849304,
        0.0,
        -3.161013850672134e-08,
        0.7071067690849304
      ],
      "scale": [
        1.0,
        1.0,
        1.0
      ],
      "translation": [
        0.0066242218017578125,
        -0.011641979217529297,
        -0.04918384552001953
      ]
    },
    {
      "children": [
        23,
        24,
        25,
        29,
        33,
        36,
        40,
        44
      ],
      "name": "hand_l",
      "rotation": [
        0.5575868487358093,
        -0.02056063525378704,
        0.001678240136243403,
        -0.8298622369766235
      ],
      "scale": [
        1.0,
        1.0,
        1.0
      ],
      "translation": [
        0.2725105285644531,
        -9.5367431640625e-07,
        -9.5367431640625e-07
      ]
    },
    {
      "name": "wrist_inner_l",
      "rotation": [
        -0.7163196206092834,
        0.11610335111618042,
        -0.08078022301197052,
        0.683286726474762
      ],
      "scale": [
        1.0,
        1.0,
        1.0
      ],
      "translation": [
        -0.007035255432128906,
        0.0003809928894042969,
        -0.016588211059570313
      ]
    },
    {
      "name": "wrist_outer_l",
      "rotation": [
        -0.683286726474762,
        0.08078022301197052,
        0.11610335111618042,
        -0.7163196206092834
      ],
      "scale": [
        1.0,
        1.0,
        1.0
      ],
      "translation": [
        0.00019741058349609375,
        -0.0012421607971191406,
        0.0223846435546875
      ]
    },
    {
      "children": [
        26
      ],
      "name": "index_metacarpal_l",
      "rotation": [
        -0.028965851292014122,
        0.007109349127858877,
        0.06370488554239273,
        -0.9975229501724243
      ],
      "scale": [
        1.0,
        1.0,
        1.0
      ],
      "translation": [
        0.034445762634277344,
        -0.023793697357177734,
        0.0038471221923828125
      ]
    },
    {
      "children": [
        27
      ],
      "name": "index_01_l",
      "rotation": [
        0.0,
        -0.2025565356016159,
        -1.1412442546543389e-08,
        -0.9792705774307251
      ],
      "scale": [
        1.0,
        1.0,
        1.0
      ],
      "translation": [
        0.058770179748535156,
        0.0024085044860839844,
        -0.000431060791015625
      ]
    },
    {
      "children": [
        28
      ],
      "name": "index_02_l",
      "rotation": [
        8.95732259523739e-16,
        -0.12959668040275574,
        -0.0,
        -0.9915667772293091
      ],
      "scale": [
        1.0,
        1.0,
        1.0
      ],
      "translation": [
        0.04079914093017578,
        2.384185791015625e-07,
        -9.5367431640625e-07
      ]
    },
    {
      "name": "index_03_l",
      "rotation": [
        -1.838677832211033e-08,
        -0.10900915414094925,
        -0.0,
        -0.9940407276153564
      ],
      "scale": [
        1.0,
        1.0,
        1.0
      ],
      "translation": [
        0.02595043182373047,
        0.0,
        0.0
      ]
    },
    {
      "children": [
        30
      ],
      "name": "middle_metacarpal_l",
      "rotation": [
        0.03729139268398285,
        0.020258842036128044,
        -0.0003859114949591458,
        -0.9990989565849304
      ],
      "scale": [
        1.0,
        1.0,
        1.0
      ],
      "translation": [
        0.033759117126464844,
        -0.0018286705017089844,
        0.007536888122558594
      ]
    },
    {
      "children": [
        31
      ],
      "name": "middle_01_l",
      "rotation": [
        2.3227828549465812e-08,
        -0.2720508873462677,
        -7.74260922042913e-09,
        -0.9622828364372253
      ],
      "scale": [
        1.0,
        1.0,
        1.0
      ],
      "translation": [
        0.06098175048828125,
        0.0,
        0.0
      ]
    },
    {
      "children": [
        32
      ],
      "name": "middle_02_l",
      "rotation": [
        1.4439185846981673e-08,
        -0.18025492131710052,
        -7.574654681263837e-09,
        -0.9836199879646301
      ],
      "scale": [
        1.0,
        1.0,
        1.0
      ],
      "translation": [
        0.05169057846069336,
        1.430511474609375e-06,
        9.5367431640625e-07
      ]
    },
    {
      "name": "middle_03_l",
      "rotation": [
        1.4490642463727e-08,
        -0.08715574443340302,
        -7.479041386204699e-09,
        -0.9961946606636047
      ],
      "scale": [
        1.0,
        1.0,
        1.0
      ],
      "translation": [
        0.024739742279052734,
        4.76837158203125e-07,
        -1.9073486328125e-06
      ]
    },
    {
      "children": [
        34
      ],
      "name": "thumb_01_l",
      "rotation": [
        -0.5051933526992798,
        0.06703907251358032,
        0.3691299259662628,
        -0.7771927714347839
      ],
      "scale": [
        1.0,
        1.0,
        1.0
      ],
      "translation": [
        0.01992511749267578,
        -0.02581501007080078,
        -0.013566017150878906
      ]
    },
    {
      "children": [
        35
      ],
      "name": "thumb_02_l",
      "rotation": [
        -0.03356520086526871,
        -0.20185570418834686,
        -0.010302457958459854,
        -0.9787856936454773
      ],
      "scale": [
        1.0,
        1.0,
        1.0
      ],
      "translation": [
        0.043781280517578125,
        0.0,
        2.384185791015625e-07
      ]
    },
    {
      "name": "thumb_03_l",
      "rotation": [
        -1.86976012450657e-09,
        -0.0871557742357254,
        1.1218560302950209e-08,
        -0.9961946606636047
      ],
      "scale": [
        1.0,
        1.0,
        1.0
      ],
      "translation": [
        0.03086090087890625,
        -9.5367431640625e-07,
        -4.76837158203125e-07
      ]
    },
    {
      "children": [
        37
      ],
      "name": "pinky_metacarpal_l",
      "rotation": [
        0.21823111176490784,
        -0.05828619375824928,
        -0.18816642463207245,
        -0.9558092355728149
      ],
      "scale": [
        1.0,
        1.0,
        1.0
      ],
      "translation": [
        0.03314495086669922,
        0.02391195297241211,
        0.00305938720703125
      ]
    },
    {
      "children": [
        38
      ],
      "name": "pinky_01_l",
      "rotation": [
        -0.08998401463031769,
        -0.12806592881679535,
        0.01701599918305874,
        -0.9875284433364868
      ],
      "scale": [
        1.0,
        1.0,
        1.0
      ],
      "translation": [
        0.049576759338378906,
        -0.001987457275390625,
        0.0014309883117675781
      ]
    },
    {
      "children": [
        39
      ],
      "name": "pinky_02_l",
      "rotation": [
        -4.5012238381048064e-09,
        -0.18469755351543427,
        3.790503466660766e-09,
        -0.9827953577041626
      ],
      "scale": [
        1.0,
        1.0,
        1.0
      ],
      "translation": [
        0.03815937042236328,
        9.5367431640625e-07,
        0.0
      ]
    },
    {
      "name": "pinky_03_l",
      "rotation": [
        1.0370508896073716e-08,
        -0.042895760387182236,
        7.45744532792969e-09,
        -0.9990795850753784
      ],
      "scale": [
        1.0,
        1.0,
        1.0
      ],
      "translation": [
        0.020399808883666992,
        1.9073486328125e-06,
        -9.5367431640625e-07
      ]
    },
    {
      "children": [
        41
      ],
      "name": "ring_metacarpal_l",
      "rotation": [
        0.11659885197877884,
        0.025659635663032532,
        -0.10056864470243454,
        -0.9877409934997559
      ],
      "scale": [
        1.0,
        1.0,
        1.0
      ],
      "translation": [
        0.033743858337402344,
        0.010918140411376953,
        0.005425453186035156
      ]
    },
    {
      "children": [
        42
      ],
      "name": "ring_01_l",
      "rotation": [
        -0.054216168820858,
        -0.2535397410392761,
        0.013177275657653809,
        -0.9657145738601685
      ],
      "scale": [
        1.0,
        1.0,
        1.0
      ],
      "translation": [
        0.05645561218261719,
        -0.00020694732666015625,
        0.0004162788391113281
      ]
    },
    {
      "children": [
        43
      ],
      "name": "ring_02_l",
      "rotation": [
        8.379979377082236e-09,
        -0.1647377461194992,
        -0.0,
        -0.9863373637199402
      ],
      "scale": [
        1.0,
        1.0,
        1.0
      ],
      "translation": [
        0.04976987838745117,
        0.0,
        9.5367431640625e-07
      ]
    },
    {
      "name": "ring_03_l",
      "rotation": [
        1.6350447662460965e-09,
        -0.07992056757211685,
        -0.0,
        -0.9968011975288391
      ],
      "scale": [
        1.0,
        1.0,
        1.0
      ],
      "translation": [
        0.022649765014648438,
        0.0,
        0.0
      ]
    },
    {
      "name": "weapon_l",
      "rotation": [
        0.08981169760227203,
        -0.059294477105140686,
        -0.14387716352939606,
        -0.9837262630462646
      ],
      "scale": [
        1.0,
        1.0,
        1.0
      ],
      "translation": [
        0.01163482666015625,
        0.00519561767578125,
        -0.013170242309570313
      ]
    },
    {
      "children": [
        46
      ],
      "name": "upperarm_twist_01_l",
      "rotation": [
        5.355374014470726e-05,
        0.0028496922459453344,
        -0.018790144473314285,
        -0.9998193979263306
      ],
      "scale": [
        1.0,
        1.0,
        1.0
      ],
      "translation": [
        0.09257078170776367,
        -9.5367431640625e-07,
        0.0
      ]
    },
    {
      "name": "upperarm_twistCor_01_l",
      "rotation": [
        5.355607208912261e-05,
        0.0028496922459453344,
        -0.018790166825056076,
        -0.9998193979263306
      ],
      "scale": [
        1.0,
        1.0,
        1.0
      ],
      "translation": [
        -4.76837158203125e-07,
        0.0,
        0.0
      ]
    },
    {
      "children": [
        48,
        49,
        50
      ],
      "name": "upperarm_twist_02_l",
      "rotation": [
        -4.6566123179658803e-10,
        -9.313225746154785e-10,
        -0.0,
        -1.0
      ],
      "scale": [
        1.0,
        1.0,
        1.0
      ],
      "translation": [
        0.18514108657836914,
        -1.430511474609375e-06,
        -1.9073486328125e-06
      ]
    },
    {
      "name": "upperarm_tricep_l",
      "rotation": [
        -0.7369753122329712,
        0.002391337649896741,
        0.008088348433375359,
        0.6758670210838318
      ],
      "scale": [
        1.0,
        1.0,
        1.0
      ],
      "translation": [
        0.006398677825927734,
        -0.0020170211791992188,
        -0.04880523681640625
      ]
    },
    {
      "name": "upperarm_bicep_l",
      "rotation": [
        -0.6758670210838318,
        -0.008088348433375359,
        0.002391334855929017,
        -0.7369753122329712
      ],
      "scale": [
        1.0,
        1.0,
        1.0
      ],
      "translation": [
        0.006797313690185547,
        -0.017919063568115234,
        0.04439353942871094
      ]
    },
    {
      "name": "upperarm_twistCor_02_l",
      "rotation": [
        0.0001605918660061434,
        0.008544963784515858,
        -0.05634339526295662,
        -0.998374879360199
      ],
      "scale": [
        1.0,
        1.0,
        1.0
      ],
      "translation": [
        -0.0,
        -9.5367431640625e-07,
        -9.5367431640625e-07
      ]
    },
    {
      "children": [
        52,
        53,
        54,
        55
      ],
      "name": "upperarm_correctiveRoot_l",
      "rotation": [
        -4.6566123179658803e-10,
        -9.313225746154785e-10,
        -0.0,
        -1.0
      ],
      "scale": [
        1.0,
        1.0,
        1.0
      ],
      "translation": [
        -0.0,
        -1.430511474609375e-06,
        0.0
      ]
    },
    {
      "name": "upperarm_bck_l",
      "rotation": [
        0.5831060409545898,
        -1.834223795071921e-08,
        -2.292779965884506e-09,
        -0.8123960494995117
      ],
      "scale": [
        1.0,
        1.0,
        1.0
      ],
      "translation": [
        0.014677047729492188,
        0.0038580894470214844,
        -0.07644462585449219
      ]
    },
    {
      "name": "upperarm_fwd_l",
      "rotation": [
        -0.7570512890815735,
        -0.08010128885507584,
        0.06762325018644333,
        -0.6448908448219299
      ],
      "scale": [
        1.0,
        1.0,
        1.0
      ],
      "translation": [
        0.03255128860473633,
        -0.010631084442138672,
        0.08509063720703125
      ]
    },
    {
      "name": "upperarm_in_l",
      "rotation": [
        -0.9128550887107849,
        -0.4082837700843811,
        -2.5505761391819703e-10,
        5.101152278363941e-10
      ],
      "scale": [
        1.0,
        1.0,
        1.0
      ],
      "translation": [
        0.0641016960144043,
        -0.047618865966796875,
        0.005443572998046875
      ]
    },
    {
      "name": "upperarm_out_l",
      "rotation": [
        -4.6566123179658803e-10,
        -9.313225746154785e-10,
        -0.0,
        -1.0
      ],
      "scale": [
        1.0,
        1.0,
        1.0
      ],
      "translation": [
        0.0022039413452148438,
        0.05803871154785156,
        -0.0005178451538085938
      ]
    },
    {
      "name": "clavicle_out_l",
      "rotation": [
        0.002589881420135498,
        0.03747115656733513,
        -0.027061041444540024,
        -0.998927891254425
      ],
      "scale": [
        1.0,
        1.0,
        1.0
      ],
      "translation": [
        0.1181344985961914,
        0.06281840801239014,
        0.0044384002685546875
      ]
    },
    {
      "name": "clavicle_scap_l",
      "rotation": [
        -0.027061041444540024,
        0.998927891254425,
        -0.002589881420135498,
        0.03747115656733513
      ],
      "scale": [
        1.0,
        1.0,
        1.0
      ],
      "translation": [
        0.09985923767089844,
        -0.01993119716644287,
        -0.07578277587890625
      ]
    },
    {
      "children": [
        59,
        102,
        103
      ],
      "name": "clavicle_r",
      "rotation": [
        -0.7545603513717651,
        0.6496140956878662,
        -0.08327832072973251,
        0.04129001125693321
      ],
      "scale": [
        1.0,
        1.0,
        1.0
      ],
      "translation": [
        0.05516219139099121,
        0.014278411865234375,
        -0.013149261474609375
      ]
    },
    {
      "children": [
        60,
        91,
        93,
        97
      ],
      "name": "upperarm_r",
      "rotation": [
        0.019947856664657593,
        0.020190158858895302,
        0.39173078536987305,
        -0.9196420907974243
      ],
      "scale": [
        1.0,
        1.0,
        1.0
      ],
      "translation": [
        -0.17809581756591797,
        4.5299530029296875e-06,
        9.5367431640625e-07
      ]
    },
    {
      "children": [
        61,
        62,
        63,
        68
      ],
      "name": "lowerarm_r",
      "rotation": [
        4.939639253187522e-10,
        0.3336326479911804,
        7.903421028743196e-09,
        -0.9427031874656677
      ],
      "scale": [
        1.0,
        1.0,
        1.0
      ],
      "translation": [
        -0.2777061462402344,
        4.76837158203125e-07,
        0.0
      ]
    },
    {
      "name": "lowerarm_twist_02_r",
      "rotation": [
        -0.011477654799818993,
        -0.017494790256023407,
        -0.01487736590206623,
        -0.9996703267097473
      ],
      "scale": [
        1.0,
        1.0,
        1.0
      ],
      "translation": [
        -0.09083700180053711,
        -4.76837158203125e-07,
        9.5367431640625e-07
      ]
    },
    {
      "name": "lowerarm_twist_01_r",
      "rotation": [
        -0.011477647349238396,
        -0.017494797706604004,
        -0.01487732119858265,
        -0.9996703267097473
      ],
      "scale": [
        1.0,
        1.0,
        1.0
      ],
      "translation": [
        -0.18167352676391602,
        -4.76837158203125e-07,
        1.9073486328125e-06
      ]
    },
    {
      "children": [
        64,
        65,
        66,
        67
      ],
      "name": "lowerarm_correctiveRoot_r",
      "rotation": [
        -0.011752082034945488,
        -0.00017880227824207395,
        -0.015209686011075974,
        -0.9998152256011963
      ],
      "scale": [
        1.0,
        1.0,
        1.0
      ],
      "translation": [
        -0.0,
        0.0,
        9.5367431640625e-07
      ]
    },
    {
      "name": "lowerarm_out_r",
      "rotation": [
        0.0,
        7.450580596923828e-09,
        7.450580596923828e-09,
        -1.0
      ],
      "scale": [
        1.0,
        1.0,
        1.0
      ],
      "translation": [
        -0.007071018218994141,
        -0.029245376586914063,
        0.006178855895996094
      ]
    },
    {
      "name": "lowerarm_in_r",
      "rotation": [
        -1.0,
        0.0,
        -8.881784197001252e-16,
        -7.450580596923828e-09
      ],
      "scale": [
        1.0,
        1.0,
        1.0
      ],
      "translation": [
        -0.008577823638916016,
        0.038254737854003906,
        0.008169174194335938
      ]
    },
    {
      "name": "lowerarm_fwd_r",
      "rotation": [
        -0.7071067690849304,
        0.0,
        0.0,
        -0.7071067690849304
      ],
      "scale": [
        1.0,
        1.0,
        1.0
      ],
      "translation": [
        -0.018127918243408203,
        0.0022602081298828125,
        -0.035877227783203125
      ]
    },
    {
      "name": "lowerarm_bck_r",
      "rotation": [
        -0.7071067690849304,
        0.0,
        -3.161013850672134e-08,
        0.7071067690849304
      ],
      "scale": [
        1.0,
        1.0,
        1.0
      ],
      "translation": [
        -0.0077228546142578125,
        0.00985860824584961,
        0.05001544952392578
      ]
    },
    {
      "children": [
        69,
        70,
        71,
        75,
        79,
        83,
        87,
        90
      ],
      "name": "hand_r",
      "rotation": [
        0.5575868487358093,
        -0.02056063525378704,
        0.001678240136243403,
        -0.8298622369766235
      ],
      "scale": [
        1.0,
        1.0,
        1.0
      ],
      "translation": [
        -0.27251100540161133,
        0.0,
        9.5367431640625e-07
      ]
    },
    {
      "name": "wrist_inner_r",
      "rotation": [
        -0.7163196206092834,
        0.11610335111618042,
        -0.08078022301197052,
        0.683286726474762
      ],
      "scale": [
        1.0,
        1.0,
        1.0
      ],
      "translation": [
        0.007033348083496094,
        -0.0003814697265625,
        0.01658642292022705
      ]
    },
    {
      "name": "wrist_outer_r",
      "rotation": [
        -0.683286726474762,
        0.08078022301197052,
        0.11610335111618042,
        -0.7163196206092834
      ],
      "scale": [
        1.0,
        1.0,
        1.0
      ],
      "translation": [
        -0.00019884109497070313,
        0.0012416839599609375,
        -0.022387027740478516
      ]
    },
    {
      "children": [
        72
      ],
      "name": "pinky_metacarpal_r",
      "rotation": [
        0.21823111176490784,
        -0.05828619375824928,
        -0.18816642463207245,
        -0.9558092355728149
      ],
      "scale": [
        1.0,
        1.0,
        1.0
      ],
      "translation": [
        -0.03314685821533203,
        -0.023912429809570313,
        -0.0030591487884521484
      ]
    },
    {
      "children": [
        73
      ],
      "name": "pinky_01_r",
      "rotation": [
        -0.08998401463031769,
        -0.12806592881679535,
        0.01701599918305874,
        -0.9875284433364868
      ],
      "scale": [
        1.0,
        1.0,
        1.0
      ],
      "translation": [
        -0.04957258701324463,
        0.0019893646240234375,
        -0.0014324188232421875
      ]
    },
    {
      "children": [
        74
      ],
      "name": "pinky_02_r",
      "rotation": [
        -4.5012238381048064e-09,
        -0.18469755351543427,
        3.790503466660766e-09,
        -0.9827953577041626
      ],
      "scale": [
        1.0,
        1.0,
        1.0
      ],
      "translation": [
        -0.03816080093383789,
        0.0,
        -9.5367431640625e-07
      ]
    },
    {
      "name": "pinky_03_r",
      "rotation": [
        -5.01047070500249e-09,
        -0.042895760387182236,
        7.45744532792969e-09,
        -0.9990795850753784
      ],
      "scale": [
        1.0,
        1.0,
        1.0
      ],
      "translation": [
        -0.020399808883666992,
        0.0,
        0.0
      ]
    },
    {
      "children": [
        76
      ],
      "name": "ring_metacarpal_r",
      "rotation": [
        0.11659885197877884,
        0.025659635663032532,
        -0.10056864470243454,
        -0.9877409934997559
      ],
      "scale": [
        1.0,
        1.0,
        1.0
      ],
      "translation": [
        -0.03374290466308594,
        -0.010915756225585938,
        -0.0054302215576171875
      ]
    },
    {
      "children": [
        77
      ],
      "name": "ring_01_r",
      "rotation": [
        -0.054216168820858,
        -0.2535397410392761,
        0.013177275657653809,
        -0.9657145738601685
      ],
      "scale": [
        1.0,
        1.0,
        1.0
      ],
      "translation": [
        -0.0564577579498291,
        0.00020599365234375,
        -0.00041484832763671875
      ]
    },
    {
      "children": [
        78
      ],
      "name": "ring_02_r",
      "rotation": [
        8.379979377082236e-09,
        -0.1647377461194992,
        -0.0,
        -0.9863373637199402
      ],
      "scale": [
        1.0,
        1.0,
        1.0
      ],
      "translation": [
        -0.04977130889892578,
        -1.9073486328125e-06,
        -4.76837158203125e-07
      ]
    },
    {
      "name": "ring_03_r",
      "rotation": [
        1.6350447662460965e-09,
        -0.07992056757211685,
        -0.0,
        -0.9968011975288391
      ],
      "scale": [
        1.0,
        1.0,
        1.0
      ],
      "translation": [
        -0.02265024185180664,
        0.0,
        1.1920928955078125e-07
      ]
    },
    {
      "children": [
        80
      ],
      "name": "middle_metacarpal_r",
      "rotation": [
        0.03729139268398285,
        0.020258842036128044,
        -0.0003859114949591458,
        -0.9990989565849304
      ],
      "scale": [
        1.0,
        1.0,
        1.0
      ],
      "translation": [
        -0.03375864028930664,
        0.0018291473388671875,
        -0.007540464401245117
      ]
    },
    {
      "children": [
        81
      ],
      "name": "middle_01_r",
      "rotation": [
        2.3227828549465812e-08,
        -0.2720508873462677,
        -7.74260922042913e-09,
        -0.9622828364372253
      ],
      "scale": [
        1.0,
        1.0,
        1.0
      ],
      "translation": [
        -0.06098318099975586,
        0.0,
        9.5367431640625e-07
      ]
    },
    {
      "children": [
        82
      ],
      "name": "middle_02_r",
      "rotation": [
        1.4439185846981673e-08,
        -0.18025492131710052,
        -7.574654681263837e-09,
        -0.9836199879646301
      ],
      "scale": [
        1.0,
        1.0,
        1.0
      ],
      "translation": [
        -0.05168962478637695,
        -1.9073486328125e-06,
        8.642673492431641e-07
      ]
    },
    {
      "name": "middle_03_r",
      "rotation": [
        1.4490642463727e-08,
        -0.08715574443340302,
        -7.479041386204699e-09,
        -0.9961946606636047
      ],
      "scale": [
        1.0,
        1.0,
        1.0
      ],
      "translation": [
        -0.024739742279052734,
        -1.9073486328125e-06,
        -1.1920928955078125e-06
      ]
    },
    {
      "children": [
        84
      ],
      "name": "index_metacarpal_r",
      "rotation": [
        -0.028965851292014122,
        0.007109349127858877,
        0.06370488554239273,
        -0.9975229501724243
      ],
      "scale": [
        1.0,
        1.0,
        1.0
      ],
      "translation": [
        -0.03444528579711914,
        0.02379608154296875,
        -0.0038520097732543945
      ]
    },
    {
      "children": [
        85
      ],
      "name": "index_01_r",
      "rotation": [
        0.0,
        -0.2025565356016159,
        -1.1412442546543389e-08,
        -0.9792705774307251
      ],
      "scale": [
        1.0,
        1.0,
        1.0
      ],
      "translation": [
        -0.058771610260009766,
        -0.0024089813232421875,
        0.00043386220932006836
      ]
    },
    {
      "children": [
        86
      ],
      "name": "index_02_r",
      "rotation": [
        8.95732259523739e-16,
        -0.12959668040275574,
        -0.0,
        -0.9915667772293091
      ],
      "scale": [
        1.0,
        1.0,
        1.0
      ],
      "translation": [
        -0.040799617767333984,
        -9.5367431640625e-07,
        -1.430511474609375e-06
      ]
    },
    {
      "name": "index_03_r",
      "rotation": [
        -1.838677832211033e-08,
        -0.10900915414094925,
        -0.0,
        -0.9940407276153564
      ],
      "scale": [
        1.0,
        1.0,
        1.0
      ],
      "translation": [
        -0.02595043182373047,
        -9.5367431640625e-07,
        0.0
      ]
    },
    {
      "children": [
        88
      ],
      "name": "thumb_01_r",
      "rotation": [
        -0.5051933526992798,
        0.06703907251358032,
        0.3691299259662628,
        -0.7771927714347839
      ],
      "scale": [
        1.0,
        1.0,
        1.0
      ],
      "translation": [
        -0.019928932189941406,
        0.025814056396484375,
        0.013566255569458008
      ]
    },
    {
      "children": [
        89
      ],
      "name": "thumb_02_r",
      "rotation": [
        -0.03356520086526871,
        -0.20185570418834686,
        -0.010302457958459854,
        -0.9787856936454773
      ],
      "scale": [
        1.0,
        1.0,
        1.0
      ],
      "translation": [
        -0.04377937316894531,
        -1.9073486328125e-06,
        -5.7220458984375e-06
      ]
    },
    {
      "name": "thumb_03_r",
      "rotation": [
        -1.86976012450657e-09,
        -0.0871557742357254,
        1.1218560302950209e-08,
        -0.9961946606636047
      ],
      "scale": [
        1.0,
        1.0,
        1.0
      ],
      "translation": [
        -0.030859947204589844,
        2.384185791015625e-07,
        9.5367431640625e-07
      ]
    },
    {
      "name": "weapon_r",
      "rotation": [
        0.08981169760227203,
        -0.05929449200630188,
        -0.14387716352939606,
        -0.9837262630462646
      ],
      "scale": [
        1.0,
        1.0,
        1.0
      ],
      "translation": [
        -0.011633872985839844,
        -0.0051937103271484375,
        0.013170480728149414
      ]
    },
    {
      "children": [
        92
      ],
      "name": "upperarm_twist_01_r",
      "rotation": [
        5.355374014470726e-05,
        0.0028496922459453344,
        -0.018790144473314285,
        -0.9998193979263306
      ],
      "scale": [
        1.0,
        1.0,
        1.0
      ],
      "translation": [
        -0.09256887435913086,
        -9.5367431640625e-07,
        -9.5367431640625e-07
      ]
    },
    {
      "name": "upperarm_twistCor_01_r",
      "rotation": [
        5.355607208912261e-05,
        0.0028496922459453344,
        -0.018790166825056076,
        -0.9998193979263306
      ],
      "scale": [
        1.0,
        1.0,
        1.0
      ],
      "translation": [
        -4.76837158203125e-07,
        -4.76837158203125e-07,
        -9.5367431640625e-07
      ]
    },
    {
      "children": [
        94,
        95,
        96
      ],
      "name": "upperarm_twist_02_r",
      "rotation": [
        -4.6566123179658803e-10,
        -9.313225746154785e-10,
        -0.0,
        -1.0
      ],
      "scale": [
        1.0,
        1.0,
        1.0
      ],
      "translation": [
        -0.18513727188110352,
        -2.384185791015625e-06,
        -9.5367431640625e-07
      ]
    },
    {
      "name": "upperarm_tricep_r",
      "rotation": [
        -0.7369753122329712,
        0.002391337649896741,
        0.008088348433375359,
        0.6758670210838318
      ],
      "scale": [
        1.0,
        1.0,
        1.0
      ],
      "translation": [
        -0.007575511932373047,
        3.4809112548828125e-05,
        0.04871654510498047
      ]
    },
    {
      "name": "upperarm_bicep_r",
      "rotation": [
        -0.6758670210838318,
        -0.008088348433375359,
        0.002391334855929017,
        -0.7369753122329712
      ],
      "scale": [
        1.0,
        1.0,
        1.0
      ],
      "translation": [
        -0.007985115051269531,
        0.01593303680419922,
        -0.04448509216308594
      ]
    },
    {
      "name": "upperarm_twistCor_02_r",
      "rotation": [
        0.0001605918660061434,
        0.008544963784515858,
        -0.05634339526295662,
        -0.998374879360199
      ],
      "scale": [
        1.0,
        1.0,
        1.0
      ],
      "translation": [
        -0.0,
        -4.76837158203125e-07,
        -9.5367431640625e-07
      ]
    },
    {
      "children": [
        98,
        99,
        100,
        101
      ],
      "name": "upperarm_correctiveRoot_r",
      "rotation": [
        -4.6566123179658803e-10,
        -9.313225746154785e-10,
        -0.0,
        -1.0
      ],
      "scale": [
        1.0,
        1.0,
        1.0
      ],
      "translation": [
        4.76837158203125e-07,
        0.0,
        -9.5367431640625e-07
      ]
    },
    {
      "name": "upperarm_bck_r",
      "rotation": [
        0.5831060409545898,
        -1.834223795071921e-08,
        -2.292779965884506e-09,
        -0.8123960494995117
      ],
      "scale": [
        1.0,
        1.0,
        1.0
      ],
      "translation": [
        -0.015995502471923828,
        -0.005763053894042969,
        0.07637596130371094
      ]
    },
    {
      "name": "upperarm_in_r",
      "rotation": [
        -0.9128550887107849,
        -0.4082837700843811,
        -3.315749008692137e-09,
        -6.121383400170544e-09
      ],
      "scale": [
        1.0,
        1.0,
        1.0
      ],
      "translation": [
        -0.06551122665405273,
        0.045569419860839844,
        -0.005461692810058594
      ]
    },
    {
      "name": "upperarm_fwd_r",
      "rotation": [
        -0.7570512890815735,
        -0.08010128885507584,
        0.06762325018644333,
        -0.6448908448219299
      ],
      "scale": [
        1.0,
        1.0,
        1.0
      ],
      "translation": [
        -0.033879756927490234,
        0.008736610412597656,
        -0.08516788482666016
      ]
    },
    {
      "name": "upperarm_out_r",
      "rotation": [
        -4.6566123179658803e-10,
        -9.313225746154785e-10,
        -0.0,
        -1.0
      ],
      "scale": [
        1.0,
        1.0,
        1.0
      ],
      "translation": [
        -0.003532886505126953,
        -0.059935569763183594,
        0.00044155120849609375
      ]
    },
    {
      "name": "clavicle_out_r",
      "rotation": [
        0.002589881420135498,
        0.03747115656733513,
        -0.027061045169830322,
        -0.998927891254425
      ],
      "scale": [
        1.0,
        1.0,
        1.0
      ],
      "translation": [
        -0.12041759490966797,
        -0.06316554546356201,
        -0.0044231414794921875
      ]
    },
    {
      "name": "clavicle_scap_r",
      "rotation": [
        -0.027061045169830322,
        0.998927891254425,
        -0.002589881420135498,
        0.03747115656733513
      ],
      "scale": [
        1.0,
        1.0,
        1.0
      ],
      "translation": [
        -0.10214614868164063,
        0.019570589065551758,
        0.07567787170410156
      ]
    },
    {
      "name": "clavicle_pec_r",
      "rotation": [
        -0.7254826426506042,
        0.6792961955070496,
        -0.10850445181131363,
        0.021410075947642326
      ],
      "scale": [
        1.0,
        1.0,
        1.0
      ],
      "translation": [
        -0.09237837791442871,
        0.09635543823242188,
        0.07915496826171875
      ]
    },
    {
      "name": "spine_04_latissimus_l",
      "rotation": [
        -0.16731107234954834,
        -0.01925959438085556,
        0.7577242851257324,
        -0.6304680109024048
      ],
      "scale": [
        1.0,
        1.0,
        1.0
      ],
      "translation": [
        -0.09961819648742676,
        -0.1544351577758789,
        -0.046263694763183594
      ]
    },
    {
      "name": "spine_04_latissimus_r",
      "rotation": [
        -0.732041597366333,
        0.6750825643539429,
        -0.047045473009347916,
        0.07851973176002502
      ],
      "scale": [
        1.0,
        1.0,
        1.0
      ],
      "translation": [
        -0.0996711254119873,
        0.15454673767089844,
        -0.04627037048339844
      ]
    },
    {
      "name": "clavicle_pec_l",
      "rotation": [
        -0.1085059642791748,
        0.021406233310699463,
        0.7254652976989746,
        -0.6793146133422852
      ],
      "scale": [
        1.0,
        1.0,
        1.0
      ],
      "translation": [
        -0.09242892265319824,
        -0.09310245513916016,
        0.07684707641601563
      ]
    },
    {
      "children": [
        109,
        120,
        122,
        124
      ],
      "name": "thigh_r",
      "rotation": [
        0.029462046921253204,
        0.9965190887451172,
        -0.07240500301122665,
        0.028969494625926018
      ],
      "scale": [
        1.0,
        1.0,
        1.0
      ],
      "translation": [
        -0.02365720272064209,
        0.09969043731689453,
        0.0011949539184570313
      ]
    },
    {
      "children": [
        110,
        114,
        116,
        117
      ],
      "name": "calf_r",
      "rotation": [
        -1.4566249248448848e-11,
        0.043661631643772125,
        1.8644230603825918e-09,
        -0.9990463852882385
      ],
      "scale": [
        1.0,
        1.0,
        1.0
      ],
      "translation": [
        0.43341249227523804,
        -9.5367431640625e-07,
        9.5367431640625e-07
      ]
    },
    {
      "children": [
        111,
        112,
        113
      ],
      "name": "foot_r",
      "rotation": [
        0.0006656612385995686,
        -0.023239297792315483,
        0.026877108961343765,
        -0.9993683099746704
      ],
      "scale": [
        1.0,
        1.0,
        1.0
      ],
      "translation": [
        0.42217957973480225,
        9.5367431640625e-07,
        0.0
      ]
    },
    {
      "name": "ball_r",
      "rotation": [
        5.227940302887646e-09,
        0.7071068286895752,
        5.206697739623678e-09,
        -0.7071067094802856
      ],
      "scale": [
        1.0,
        1.0,
        1.0
      ],
      "translation": [
        0.0700942873954773,
        -0.005389213562011719,
        -0.1523761749267578
      ]
    },
    {
      "name": "ankle_fwd_r",
      "rotation": [
        -0.7102623581886292,
        0.005506804678589106,
        -0.05004926770925522,
        -0.7021338939666748
      ],
      "scale": [
        1.0,
        1.0,
        1.0
      ],
      "translation": [
        -0.0216808021068573,
        -0.003948211669921875,
        -0.05097389221191406
      ]
    },
    {
      "name": "ankle_bck_r",
      "rotation": [
        0.7021338939666748,
        0.05004925653338432,
        0.005506804212927818,
        -0.7102624177932739
      ],
      "scale": [
        1.0,
        1.0,
        1.0
      ],
      "translation": [
        -0.005265861749649048,
        0.009291648864746094,
        0.04041862487792969
      ]
    },
    {
      "children": [
        115
      ],
      "name": "calf_twist_02_r",
      "rotation": [
        9.299471275880933e-05,
        -0.023248642683029175,
        0.0022513377480208874,
        -0.999727189540863
      ],
      "scale": [
        1.0,
        1.0,
        1.0
      ],
      "translation": [
        0.14072656631469727,
        0.00037860870361328125,
        0.0
      ]
    },
    {
      "name": "calf_twistCor_02_r",
      "rotation": [
        3.812601789832115e-09,
        0.0,
        9.313225746154785e-10,
        -1.0
      ],
      "scale": [
        1.0,
        1.0,
        1.0
      ],
      "translation": [
        1.1920928955078125e-07,
        0.0,
        9.5367431640625e-07
      ]
    },
    {
      "name": "calf_twist_01_r",
      "rotation": [
        9.299471275880933e-05,
        -0.023248642683029175,
        0.0022513377480208874,
        -0.999727189540863
      ],
      "scale": [
        1.0,
        1.0,
        1.0
      ],
      "translation": [
        0.281453013420105,
        0.0007562637329101563,
        -9.5367431640625e-07
      ]
    },
    {
      "children": [
        118,
        119
      ],
      "name": "calf_correctiveRoot_r",
      "rotation": [
        -2.1705307517549954e-05,
        -2.9802347256691064e-08,
        -0.0013405021745711565,
        -0.9999991059303284
      ],
      "scale": [
        1.0,
        1.0,
        1.0
      ],
      "translation": [
        -0.0,
        0.0,
        -9.5367431640625e-07
      ]
    },
    {
      "name": "calf_kneeBack_r",
      "rotation": [
        0.6933396458625793,
        0.021528972312808037,
        0.012997672893106937,
        -0.7201719284057617
      ],
      "scale": [
        1.0,
        1.0,
        1.0
      ],
      "translation": [
        0.0015535354614257813,
        -0.004276275634765625,
        0.0576324462890625
      ]
    },
    {
      "name": "calf_knee_r",
      "rotation": [
        -0.7201719284057617,
        0.012997672893106937,
        -0.021528972312808037,
        -0.6933396458625793
      ],
      "scale": [
        1.0,
        1.0,
        1.0
      ],
      "translation": [
        0.00189971923828125,
        -1.621246337890625e-05,
        -0.05245780944824219
      ]
    },
    {
      "children": [
        121
      ],
      "name": "thigh_twist_01_r",
      "rotation": [
        -2.5709266992635094e-05,
        0.011408073827624321,
        0.0022531128488481045,
        -0.9999324083328247
      ],
      "scale": [
        1.0,
        1.0,
        1.0
      ],
      "translation": [
        0.14447087049484253,
        0.0,
        9.5367431640625e-07
      ]
    },
    {
      "name": "thigh_twistCor_01_r",
      "rotation": [
        3.739842213690281e-09,
        0.0,
        9.313225746154785e-10,
        -1.0
      ],
      "scale": [
        1.0,
        1.0,
        1.0
      ],
      "translation": [
        -1.1920928955078125e-07,
        9.5367431640625e-07,
        -9.5367431640625e-07
      ]
    },
    {
      "children": [
        123
      ],
      "name": "thigh_twist_02_r",
      "rotation": [
        -2.5709266992635094e-05,
        0.011408073827624321,
        0.0022531128488481045,
        -0.9999324083328247
      ],
      "scale": [
        1.0,
        1.0,
        1.0
      ],
      "translation": [
        0.28894174098968506,
        0.0,
        9.5367431640625e-07
      ]
    },
    {
      "name": "thigh_twistCor_02_r",
      "rotation": [
        3.739842213690281e-09,
        0.0,
        9.313225746154785e-10,
        -1.0
      ],
      "scale": [
        1.0,
        1.0,
        1.0
      ],
      "translation": [
        -5.960464477539063e-08,
        0.0,
        -9.5367431640625e-07
      ]
    },
    {
      "children": [
        125,
        126,
        127,
        128,
        129,
        130
      ],
      "name": "thigh_correctiveRoot_r",
      "rotation": [
        3.7107379391443374e-09,
        -2.3283067140944524e-10,
        9.313224635931761e-10,
        -1.0
      ],
      "scale": [
        1.0,
        1.0,
        1.0
      ],
      "translation": [
        -2.9802322387695313e-08,
        0.0,
        0.0
      ]
    },
    {
      "name": "thigh_fwd_r",
      "rotation": [
        -0.7071067690849304,
        3.292722206005294e-10,
        1.6463612695361007e-09,
        -0.7071067690849304
      ],
      "scale": [
        1.0,
        1.0,
        1.0
      ],
      "translation": [
        -0.042409271001815796,
        -0.007550239562988281,
        -0.06774711608886719
      ]
    },
    {
      "name": "thigh_bck_r",
      "rotation": [
        -0.7071068286895752,
        -3.292722206005294e-10,
        -9.878164952681345e-10,
        0.7071067094802856
      ],
      "scale": [
        1.0,
        1.0,
        1.0
      ],
      "translation": [
        -0.0503750741481781,
        -0.015191078186035156,
        0.10062313079833984
      ]
    },
    {
      "name": "thigh_out_r",
      "rotation": [
        -1.0,
        9.313225746154785e-10,
        2.3283067140944524e-10,
        -2.60770320892334e-08
      ],
      "scale": [
        1.0,
        1.0,
        1.0
      ],
      "translation": [
        -0.05816620588302612,
        0.051100730895996094,
        0.0060062408447265625
      ]
    },
    {
      "name": "thigh_in_r",
      "rotation": [
        3.7107379391443374e-09,
        -2.3283067140944524e-10,
        9.313224635931761e-10,
        -1.0
      ],
      "scale": [
        1.0,
        1.0,
        1.0
      ],
      "translation": [
        0.10928332805633545,
        -0.08577823638916016,
        -0.0076580047607421875
      ]
    },
    {
      "name": "thigh_bck_lwr_r",
      "rotation": [
        -0.7071068286895752,
        -3.292722206005294e-10,
        -9.878164952681345e-10,
        0.7071067094802856
      ],
      "scale": [
        1.0,
        1.0,
        1.0
      ],
      "translation": [
        0.05276170372962952,
        -0.01499176025390625,
        0.10648536682128906
      ]
    },
    {
      "name": "thigh_fwd_lwr_r",
      "rotation": [
        -0.7071067690849304,
        3.292722206005294e-10,
        1.6463612695361007e-09,
        -0.7071067690849304
      ],
      "scale": [
        1.0,
        1.0,
        1.0
      ],
      "translation": [
        0.010280311107635498,
        -0.0072422027587890625,
        -0.06899547576904297
      ]
    },
    {
      "children": [
        132,
        143,
        145,
        147
      ],
      "name": "thigh_l",
      "rotation": [
        -0.07240500301122665,
        0.028969494625926018,
        -0.029462046921253204,
        -0.9965190887451172
      ],
      "scale": [
        1.0,
        1.0,
        1.0
      ],
      "translation": [
        -0.02365708351135254,
        -0.09969329833984375,
        0.0010995864868164063
      ]
    },
    {
      "children": [
        133,
        137,
        139,
        140
      ],
      "name": "calf_l",
      "rotation": [
        3.728845676675974e-09,
        0.04366162791848183,
        1.8644230603825918e-09,
        -0.9990463852882385
      ],
      "scale": [
        1.0,
        1.0,
        1.0
      ],
      "translation": [
        -0.4334130883216858,
        0.0,
        0.0
      ]
    },
    {
      "children": [
        134,
        135,
        136
      ],
      "name": "foot_l",
      "rotation": [
        0.0006656574551016092,
        -0.023239297792315483,
        0.026877108961343765,
        -0.9993683099746704
      ],
      "scale": [
        1.0,
        1.0,
        1.0
      ],
      "translation": [
        -0.4221792221069336,
        4.76837158203125e-07,
        0.0
      ]
    },
    {
      "name": "ball_l",
      "rotation": [
        5.223378174434856e-09,
        0.7071068286895752,
        5.248881329578126e-09,
        -0.7071067094802856
      ],
      "scale": [
        1.0,
        1.0,
        1.0
      ],
      "translation": [
        -0.0700942873954773,
        0.005389690399169922,
        0.1523761749267578
      ]
    },
    {
      "name": "ankle_bck_l",
      "rotation": [
        -0.7501633763313293,
        -0.05031159520149231,
        -0.0019755528774112463,
        0.6593327522277832
      ],
      "scale": [
        1.0,
        1.0,
        1.0
      ],
      "translation": [
        0.006127029657363892,
        -0.004924297332763672,
        -0.034438133239746094
      ]
    },
    {
      "name": "ankle_fwd_l",
      "rotation": [
        -0.6593327522277832,
        0.0019755528774112463,
        -0.05031159520149231,
        -0.7501633763313293
      ],
      "scale": [
        1.0,
        1.0,
        1.0
      ],
      "translation": [
        0.01779794692993164,
        -0.0026445388793945313,
        0.045948028564453125
      ]
    },
    {
      "children": [
        138
      ],
      "name": "calf_twist_02_l",
      "rotation": [
        9.299471275880933e-05,
        -0.023248642683029175,
        0.002251338679343462,
        -0.999727189540863
      ],
      "scale": [
        1.0,
        1.0,
        1.0
      ],
      "translation": [
        -0.1407265067100525,
        0.0,
        0.0
      ]
    },
    {
      "name": "calf_twistCor_02_l",
      "rotation": [
        3.812601789832115e-09,
        0.0,
        -0.0,
        -1.0
      ],
      "scale": [
        1.0,
        1.0,
        1.0
      ],
      "translation": [
        -0.0,
        4.76837158203125e-07,
        0.0
      ]
    },
    {
      "name": "calf_twist_01_l",
      "rotation": [
        9.299471275880933e-05,
        -0.023248642683029175,
        0.002251338679343462,
        -0.999727189540863
      ],
      "scale": [
        1.0,
        1.0,
        1.0
      ],
      "translation": [
        -0.2814527750015259,
        -0.0007548332214355469,
        -9.5367431640625e-07
      ]
    },
    {
      "children": [
        141,
        142
      ],
      "name": "calf_correctiveRoot_l",
      "rotation": [
        -2.170891639252659e-05,
        -2.7939698554746428e-08,
        -0.0013405003119260073,
        -0.9999991059303284
      ],
      "scale": [
        1.0,
        1.0,
        1.0
      ],
      "translation": [
        -1.1920928955078125e-07,
        0.0,
        0.0
      ]
    },
    {
      "name": "calf_kneeBack_l",
      "rotation": [
        0.6933396458625793,
        0.021529486402869225,
        0.012985938228666782,
        -0.7201721668243408
      ],
      "scale": [
        1.0,
        1.0,
        1.0
      ],
      "translation": [
        -0.001585543155670166,
        0.004039287567138672,
        -0.05758476257324219
      ]
    },
    {
      "name": "calf_knee_l",
      "rotation": [
        -0.7201721668243408,
        0.012985938228666782,
        -0.021529488265514374,
        -0.6933396458625793
      ],
      "scale": [
        1.0,
        1.0,
        1.0
      ],
      "translation": [
        -0.001928091049194336,
        -1.1920928955078125e-05,
        0.052491188049316406
      ]
    },
    {
      "children": [
        144
      ],
      "name": "thigh_twist_01_l",
      "rotation": [
        -2.5705534426379018e-05,
        0.011408073827624321,
        0.0022531128488481045,
        -0.9999324083328247
      ],
      "scale": [
        1.0,
        1.0,
        1.0
      ],
      "translation": [
        -0.14447110891342163,
        -9.5367431640625e-07,
        9.5367431640625e-07
      ]
    },
    {
      "name": "thigh_twistCor_01_l",
      "rotation": [
        2.9103885967884935e-11,
        4.656612873077393e-10,
        -0.0,
        -1.0
      ],
      "scale": [
        1.0,
        1.0,
        1.0
      ],
      "translation": [
        -0.0,
        -1.430511474609375e-06,
        -9.5367431640625e-07
      ]
    },
    {
      "children": [
        146
      ],
      "name": "thigh_twist_02_l",
      "rotation": [
        -2.5705534426379018e-05,
        0.011408073827624321,
        0.0022531128488481045,
        -0.9999324083328247
      ],
      "scale": [
        1.0,
        1.0,
        1.0
      ],
      "translation": [
        -0.2889420986175537,
        -9.5367431640625e-07,
        0.0
      ]
    },
    {
      "name": "thigh_twistCor_02_l",
      "rotation": [
        2.9103885967884935e-11,
        4.656612873077393e-10,
        -0.0,
        -1.0
      ],
      "scale": [
        1.0,
        1.0,
        1.0
      ],
      "translation": [
        2.9802322387695313e-08,
        4.76837158203125e-07,
        0.0
      ]
    },
    {
      "children": [
        148,
        149,
        150,
        151,
        152,
        153
      ],
      "name": "thigh_correctiveRoot_l",
      "rotation": [
        3.6961860239159705e-09,
        -5.551115123125783e-17,
        9.313224635931761e-10,
        -1.0
      ],
      "scale": [
        1.0,
        1.0,
        1.0
      ],
      "translation": [
        -5.960464477539063e-08,
        -9.5367431640625e-07,
        0.0
      ]
    },
    {
      "name": "thigh_bck_l",
      "rotation": [
        -0.7071068286895752,
        -3.292721928449538e-10,
        -9.878164952681345e-10,
        0.7071067094802856
      ],
      "scale": [
        1.0,
        1.0,
        1.0
      ],
      "translation": [
        0.05035454034805298,
        0.014929771423339844,
        -0.10055828094482422
      ]
    },
    {
      "name": "thigh_fwd_l",
      "rotation": [
        -0.7071067690849304,
        3.292722206005294e-10,
        1.6463612695361007e-09,
        -0.7071067690849304
      ],
      "scale": [
        1.0,
        1.0,
        1.0
      ],
      "translation": [
        0.04229539632797241,
        0.007472991943359375,
        0.06773090362548828
      ]
    },
    {
      "name": "thigh_out_l",
      "rotation": [
        -1.0,
        9.313224635931761e-10,
        5.551115123125783e-17,
        -3.6961860239159705e-09
      ],
      "scale": [
        1.0,
        1.0,
        1.0
      ],
      "translation": [
        0.05814093351364136,
        -0.051227569580078125,
        -0.005866050720214844
      ]
    },
    {
      "name": "thigh_bck_lwr_l",
      "rotation": [
        -0.7071068286895752,
        -3.292721928449538e-10,
        -9.878164952681345e-10,
        0.7071067094802856
      ],
      "scale": [
        1.0,
        1.0,
        1.0
      ],
      "translation": [
        -0.052984774112701416,
        0.012300491333007813,
        -0.10491466522216797
      ]
    },
    {
      "name": "thigh_in_l",
      "rotation": [
        3.6961860239159705e-09,
        -5.551115123125783e-17,
        9.313224635931761e-10,
        -1.0
      ],
      "scale": [
        1.0,
        1.0,
        1.0
      ],
      "translation": [
        -0.1086883544921875,
        0.08555126190185547,
        0.008266448974609375
      ]
    },
    {
      "name": "thigh_fwd_lwr_l",
      "rotation": [
        -0.7071067690849304,
        3.292722206005294e-10,
        1.6463612695361007e-09,
        -0.7071067690849304
      ],
      "scale": [
        1.0,
        1.0,
        1.0
      ],
      "translation": [
        -0.011209189891815186,
        0.0064830780029296875,
        0.07387924194335938
      ]
    },
    {
      "children": [
        155,
        156
      ],
      "name": "ik_foot_root",
      "rotation": [
        0.0,
        0.0,
        -0.0,
        -1.0
      ],
      "scale": [
        1.0,
        1.0,
        1.0
      ],
      "translation": [
        -0.0,
        0.0,
        0.0
      ]
    },
    {
      "name": "ik_foot_l",
      "rotation": [
        -0.063631571829319,
        -0.041375525295734406,
        -0.7042466402053833,
        -0.7058864831924438
      ],
      "scale": [
        1.0,
        1.0,
        1.0
      ],
      "translation": [
        0.14087677001953125,
        0.0823763906955719,
        -0.009943008422851563
      ]
    },
    {
      "name": "ik_foot_r",
      "rotation": [
        -0.7058864831924438,
        0.7042466402053833,
        -0.04137552157044411,
        0.0636315643787384
      ],
      "scale": [
        1.0,
        1.0,
        1.0
      ],
      "translation": [
        -0.14087581634521484,
        0.08238232135772705,
        -0.009848594665527344
      ]
    },
    {
      "children": [
        158
      ],
      "name": "ik_hand_root",
      "rotation": [
        0.0,
        0.0,
        -0.0,
        -1.0
      ],
      "scale": [
        1.0,
        1.0,
        1.0
      ],
      "translation": [
        -0.0,
        0.0,
        0.0
      ]
    },
    {
      "children": [
        159,
        160
      ],
      "name": "ik_hand_gun",
      "rotation": [
        -0.5984604358673096,
        -0.5205995440483093,
        -0.009649345651268959,
        -0.608874499797821
      ],
      "scale": [
        1.0,
        1.0,
        1.0
      ],
      "translation": [
        -0.47768306732177734,
        1.0446642637252808,
        0.15698814392089844
      ]
    },
    {
      "name": "ik_hand_l",
      "rotation": [
        0.45776599645614624,
        0.6113659739494324,
        0.6455090045928955,
        2.4373553841883222e-08
      ],
      "scale": [
        1.0,
        1.0,
        1.0
      ],
      "translation": [
        0.4373354911804199,
        0.5840816497802734,
        0.6166985034942627
      ]
    },
    {
      "name": "ik_hand_r",
      "rotation": [
        1.1175870895385742e-08,
        -7.450580596923828e-09,
        -0.0,
        -1.0
      ],
      "scale": [
        1.0,
        1.0,
        1.0
      ],
      "translation": [
        4.76837158203125e-07,
        1.9073486328125e-06,
        -1.1920928955078125e-07
      ]
    },
    {
      "name": "interaction",
      "rotation": [
        0.0,
        0.0,
        -0.0,
        -1.0
      ],
      "scale": [
        1.0,
        1.0,
        1.0
      ],
      "translation": [
        -0.0,
        0.0,
        0.0
      ]
    },
    {
      "name": "center_of_mass",
      "rotation": [
        0.0,
        0.0,
        -0.0,
        -1.0
      ],
      "scale": [
        1.0,
        1.0,
        1.0
      ],
      "translation": [
        -0.0,
        0.0,
        0.0
      ]
    }
  ],
  "samplers": [
    {
      "wrapS": 10497,
      "wrapT": 10497
    }
  ],
  "scenes": [
    {
      "nodes": [
        0,
        1
      ]
    }
  ],
  "skins": [
    {
      "inverseBindMatrices": 0,
      "joints": [
        2,
        3,
        4,
        5,
        6,
        7,
        8,
        9,
        10,
        11,
        12,
        13,
        14,
        15,
        16,
        17,
        18,
        19,
        20,
        21,
        22,
        23,
        24,
        25,
        26,
        27,
        28,
        29,
        30,
        31,
        32,
        33,
        34,
        35,
        36,
        37,
        38,
        39,
        40,
        41,
        42,
        43,
        44,
        45,
        46,
        47,
        48,
        49,
        50,
        51,
        52,
        53,
        54,
        55,
        56,
        57,
        58,
        59,
        60,
        61,
        62,
        63,
        64,
        65,
        66,
        67,
        68,
        69,
        70,
        71,
        72,
        73,
        74,
        75,
        76,
        77,
        78,
        79,
        80,
        81,
        82,
        83,
        84,
        85,
        86,
        87,
        88,
        89,
        90,
        91,
        92,
        93,
        94,
        95,
        96,
        97,
        98,
        99,
        100,
        101,
        102,
        103,
        104,
        105,
        106,
        107,
        108,
        109,
        110,
        111,
        112,
        113,
        114,
        115,
        116,
        117,
        118,
        119,
        120,
        121,
        122,
        123,
        124,
        125,
        126,
        127,
        128,
        129,
        130,
        131,
        132,
        133,
        134,
        135,
        136,
        137,
        138,
        139,
        140,
        141,
        142,
        143,
        144,
        145,
        146,
        147,
        148,
        149,
        150,
        151,
        152,
        153,
        154,
        155,
        156,
        157,
        158,
        159,
        160,
        161,
        162
      ]
    }
  ],
  "textures": [
    {
      "name": "MI_Manny_02_SKM_Manny_BaseColor",
      "sampler": 0,
      "source": 0
    },
    {
      "name": "MI_Manny_02_SKM_Manny_MetallicRoughness",
      "sampler": 0,
      "source": 1
    },
    {
      "name": "MI_Manny_02_SKM_Manny_Occlusion",
      "sampler": 0,
      "source": 2
    },
    {
      "name": "MI_Manny_02_SKM_Manny_Emissive",
      "sampler": 0,
      "source": 3
    },
    {
      "name": "MI_Manny_01_SKM_Manny_BaseColor",
      "sampler": 0,
      "source": 4
    },
    {
      "name": "MI_Manny_01_SKM_Manny_MetallicRoughness",
      "sampler": 0,
      "source": 5
    },
    {
      "name": "MI_Manny_01_SKM_Manny_Occlusion",
      "sampler": 0,
      "source": 6
    },
    {
      "name": "MI_Manny_01_SKM_Manny_Emissive",
      "sampler": 0,
      "source": 7
    }
  ]
}
